<svg width="198" height="40" viewBox="0 0 198 40" fill="none" xmlns="http://www.w3.org/2000/svg">
<g clip-path="url(#clip0_4102_983)">
<path d="M46.1523 22.5H42.7539V8.69531C42.7539 7.73438 42.9414 6.92578 43.3164 6.26953C43.6992 5.60547 44.2344 5.10547 44.9219 4.76953C45.6172 4.42578 46.4414 4.25391 47.3945 4.25391C47.707 4.25391 48.0078 4.27734 48.2969 4.32422C48.5859 4.36328 48.8672 4.41406 49.1406 4.47656L49.1055 7.01953C48.957 6.98047 48.8008 6.95312 48.6367 6.9375C48.4727 6.92188 48.2812 6.91406 48.0625 6.91406C47.6562 6.91406 47.3086 6.98438 47.0195 7.125C46.7383 7.25781 46.5234 7.45703 46.375 7.72266C46.2266 7.98828 46.1523 8.3125 46.1523 8.69531V22.5ZM48.6836 9.82031V12.2109H40.8672V9.82031H48.6836ZM49.9141 16.2891V16.043C49.9141 15.1133 50.0469 14.2578 50.3125 13.4766C50.5781 12.6875 50.9648 12.0039 51.4727 11.4258C51.9805 10.8477 52.6055 10.3984 53.3477 10.0781C54.0898 9.75 54.9414 9.58594 55.9023 9.58594C56.8633 9.58594 57.7188 9.75 58.4688 10.0781C59.2188 10.3984 59.8477 10.8477 60.3555 11.4258C60.8711 12.0039 61.2617 12.6875 61.5273 13.4766C61.793 14.2578 61.9258 15.1133 61.9258 16.043V16.2891C61.9258 17.2109 61.793 18.0664 61.5273 18.8555C61.2617 19.6367 60.8711 20.3203 60.3555 20.9062C59.8477 21.4844 59.2227 21.9336 58.4805 22.2539C57.7383 22.5742 56.8867 22.7344 55.9258 22.7344C54.9648 22.7344 54.1094 22.5742 53.3594 22.2539C52.6172 21.9336 51.9883 21.4844 51.4727 20.9062C50.9648 20.3203 50.5781 19.6367 50.3125 18.8555C50.0469 18.0664 49.9141 17.2109 49.9141 16.2891ZM53.2891 16.043V16.2891C53.2891 16.8203 53.3359 17.3164 53.4297 17.7773C53.5234 18.2383 53.6719 18.6445 53.875 18.9961C54.0859 19.3398 54.3594 19.6094 54.6953 19.8047C55.0312 20 55.4414 20.0977 55.9258 20.0977C56.3945 20.0977 56.7969 20 57.1328 19.8047C57.4688 19.6094 57.7383 19.3398 57.9414 18.9961C58.1445 18.6445 58.293 18.2383 58.3867 17.7773C58.4883 17.3164 58.5391 16.8203 58.5391 16.2891V16.043C58.5391 15.5273 58.4883 15.043 58.3867 14.5898C58.293 14.1289 58.1406 13.7227 57.9297 13.3711C57.7266 13.0117 57.457 12.7305 57.1211 12.5273C56.7852 12.3242 56.3789 12.2227 55.9023 12.2227C55.4258 12.2227 55.0195 12.3242 54.6836 12.5273C54.3555 12.7305 54.0859 13.0117 53.875 13.3711C53.6719 13.7227 53.5234 14.1289 53.4297 14.5898C53.3359 15.043 53.2891 15.5273 53.2891 16.043ZM63.4609 16.2891V16.043C63.4609 15.1133 63.5938 14.2578 63.8594 13.4766C64.125 12.6875 64.5117 12.0039 65.0195 11.4258C65.5273 10.8477 66.1523 10.3984 66.8945 10.0781C67.6367 9.75 68.4883 9.58594 69.4492 9.58594C70.4102 9.58594 71.2656 9.75 72.0156 10.0781C72.7656 10.3984 73.3945 10.8477 73.9023 11.4258C74.418 12.0039 74.8086 12.6875 75.0742 13.4766C75.3398 14.2578 75.4727 15.1133 75.4727 16.043V16.2891C75.4727 17.2109 75.3398 18.0664 75.0742 18.8555C74.8086 19.6367 74.418 20.3203 73.9023 20.9062C73.3945 21.4844 72.7695 21.9336 72.0273 22.2539C71.2852 22.5742 70.4336 22.7344 69.4727 22.7344C68.5117 22.7344 67.6562 22.5742 66.9062 22.2539C66.1641 21.9336 65.5352 21.4844 65.0195 20.9062C64.5117 20.3203 64.125 19.6367 63.8594 18.8555C63.5938 18.0664 63.4609 17.2109 63.4609 16.2891ZM66.8359 16.043V16.2891C66.8359 16.8203 66.8828 17.3164 66.9766 17.7773C67.0703 18.2383 67.2188 18.6445 67.4219 18.9961C67.6328 19.3398 67.9062 19.6094 68.2422 19.8047C68.5781 20 68.9883 20.0977 69.4727 20.0977C69.9414 20.0977 70.3438 20 70.6797 19.8047C71.0156 19.6094 71.2852 19.3398 71.4883 18.9961C71.6914 18.6445 71.8398 18.2383 71.9336 17.7773C72.0352 17.3164 72.0859 16.8203 72.0859 16.2891V16.043C72.0859 15.5273 72.0352 15.043 71.9336 14.5898C71.8398 14.1289 71.6875 13.7227 71.4766 13.3711C71.2734 13.0117 71.0039 12.7305 70.668 12.5273C70.332 12.3242 69.9258 12.2227 69.4492 12.2227C68.9727 12.2227 68.5664 12.3242 68.2305 12.5273C67.9023 12.7305 67.6328 13.0117 67.4219 13.3711C67.2188 13.7227 67.0703 14.1289 66.9766 14.5898C66.8828 15.043 66.8359 15.5273 66.8359 16.043ZM85.0352 19.7344V4.5H88.4336V22.5H85.375L85.0352 19.7344ZM77.0195 16.3125V16.0664C77.0195 15.0977 77.1289 14.2188 77.3477 13.4297C77.5664 12.6328 77.8867 11.9492 78.3086 11.3789C78.7305 10.8086 79.25 10.3672 79.8672 10.0547C80.4844 9.74219 81.1875 9.58594 81.9766 9.58594C82.7188 9.58594 83.3672 9.74219 83.9219 10.0547C84.4844 10.3672 84.9609 10.8125 85.3516 11.3906C85.75 11.9609 86.0703 12.6367 86.3125 13.418C86.5547 14.1914 86.7305 15.0391 86.8398 15.9609V16.5C86.7305 17.3828 86.5547 18.2031 86.3125 18.9609C86.0703 19.7188 85.75 20.3828 85.3516 20.9531C84.9609 21.5156 84.4844 21.9531 83.9219 22.2656C83.3594 22.5781 82.7031 22.7344 81.9531 22.7344C81.1641 22.7344 80.4609 22.5742 79.8438 22.2539C79.2344 21.9336 78.7188 21.4844 78.2969 20.9062C77.8828 20.3281 77.5664 19.6484 77.3477 18.8672C77.1289 18.0859 77.0195 17.2344 77.0195 16.3125ZM80.3945 16.0664V16.3125C80.3945 16.8359 80.4336 17.3242 80.5117 17.7773C80.5977 18.2305 80.7344 18.6328 80.9219 18.9844C81.1172 19.3281 81.3672 19.5977 81.6719 19.793C81.9844 19.9805 82.3633 20.0742 82.8086 20.0742C83.3867 20.0742 83.8633 19.9453 84.2383 19.6875C84.6133 19.4219 84.8984 19.0586 85.0938 18.5977C85.2969 18.1367 85.4141 17.6055 85.4453 17.0039V15.4688C85.4219 14.9766 85.3516 14.5352 85.2344 14.1445C85.125 13.7461 84.9609 13.4062 84.7422 13.125C84.5312 12.8438 84.2656 12.625 83.9453 12.4688C83.6328 12.3125 83.2617 12.2344 82.832 12.2344C82.3945 12.2344 82.0195 12.3359 81.707 12.5391C81.3945 12.7344 81.1406 13.0039 80.9453 13.3477C80.7578 13.6914 80.6172 14.0977 80.5234 14.5664C80.4375 15.0273 80.3945 15.5273 80.3945 16.0664ZM104.535 19.7344V4.5H107.934V22.5H104.875L104.535 19.7344ZM96.5195 16.3125V16.0664C96.5195 15.0977 96.6289 14.2188 96.8477 13.4297C97.0664 12.6328 97.3867 11.9492 97.8086 11.3789C98.2305 10.8086 98.75 10.3672 99.3672 10.0547C99.9844 9.74219 100.688 9.58594 101.477 9.58594C102.219 9.58594 102.867 9.74219 103.422 10.0547C103.984 10.3672 104.461 10.8125 104.852 11.3906C105.25 11.9609 105.57 12.6367 105.812 13.418C106.055 14.1914 106.23 15.0391 106.34 15.9609V16.5C106.23 17.3828 106.055 18.2031 105.812 18.9609C105.57 19.7188 105.25 20.3828 104.852 20.9531C104.461 21.5156 103.984 21.9531 103.422 22.2656C102.859 22.5781 102.203 22.7344 101.453 22.7344C100.664 22.7344 99.9609 22.5742 99.3438 22.2539C98.7344 21.9336 98.2188 21.4844 97.7969 20.9062C97.3828 20.3281 97.0664 19.6484 96.8477 18.8672C96.6289 18.0859 96.5195 17.2344 96.5195 16.3125ZM99.8945 16.0664V16.3125C99.8945 16.8359 99.9336 17.3242 100.012 17.7773C100.098 18.2305 100.234 18.6328 100.422 18.9844C100.617 19.3281 100.867 19.5977 101.172 19.793C101.484 19.9805 101.863 20.0742 102.309 20.0742C102.887 20.0742 103.363 19.9453 103.738 19.6875C104.113 19.4219 104.398 19.0586 104.594 18.5977C104.797 18.1367 104.914 17.6055 104.945 17.0039V15.4688C104.922 14.9766 104.852 14.5352 104.734 14.1445C104.625 13.7461 104.461 13.4062 104.242 13.125C104.031 12.8438 103.766 12.625 103.445 12.4688C103.133 12.3125 102.762 12.2344 102.332 12.2344C101.895 12.2344 101.52 12.3359 101.207 12.5391C100.895 12.7344 100.641 13.0039 100.445 13.3477C100.258 13.6914 100.117 14.0977 100.023 14.5664C99.9375 15.0273 99.8945 15.5273 99.8945 16.0664ZM116.406 22.7344C115.422 22.7344 114.539 22.5781 113.758 22.2656C112.977 21.9453 112.312 21.5039 111.766 20.9414C111.227 20.3789 110.812 19.7266 110.523 18.9844C110.234 18.2344 110.09 17.4375 110.09 16.5938V16.125C110.09 15.1641 110.227 14.2852 110.5 13.4883C110.773 12.6914 111.164 12 111.672 11.4141C112.188 10.8281 112.812 10.3789 113.547 10.0664C114.281 9.74609 115.109 9.58594 116.031 9.58594C116.93 9.58594 117.727 9.73438 118.422 10.0312C119.117 10.3281 119.699 10.75 120.168 11.2969C120.645 11.8438 121.004 12.5 121.246 13.2656C121.488 14.0234 121.609 14.8672 121.609 15.7969V17.2031H111.531V14.9531H118.293V14.6953C118.293 14.2266 118.207 13.8086 118.035 13.4414C117.871 13.0664 117.621 12.7695 117.285 12.5508C116.949 12.332 116.52 12.2227 115.996 12.2227C115.551 12.2227 115.168 12.3203 114.848 12.5156C114.527 12.7109 114.266 12.9844 114.062 13.3359C113.867 13.6875 113.719 14.1016 113.617 14.5781C113.523 15.0469 113.477 15.5625 113.477 16.125V16.5938C113.477 17.1016 113.547 17.5703 113.688 18C113.836 18.4297 114.043 18.8008 114.309 19.1133C114.582 19.4258 114.91 19.668 115.293 19.8398C115.684 20.0117 116.125 20.0977 116.617 20.0977C117.227 20.0977 117.793 19.9805 118.316 19.7461C118.848 19.5039 119.305 19.1406 119.688 18.6562L121.328 20.4375C121.062 20.8203 120.699 21.1875 120.238 21.5391C119.785 21.8906 119.238 22.1797 118.598 22.4062C117.957 22.625 117.227 22.7344 116.406 22.7344ZM127.094 4.5V22.5H123.707V4.5H127.094ZM133.445 9.82031V22.5H130.059V9.82031H133.445ZM129.848 6.51562C129.848 6.02344 130.02 5.61719 130.363 5.29688C130.707 4.97656 131.168 4.81641 131.746 4.81641C132.316 4.81641 132.773 4.97656 133.117 5.29688C133.469 5.61719 133.645 6.02344 133.645 6.51562C133.645 7.00781 133.469 7.41406 133.117 7.73438C132.773 8.05469 132.316 8.21484 131.746 8.21484C131.168 8.21484 130.707 8.05469 130.363 7.73438C130.02 7.41406 129.848 7.00781 129.848 6.51562ZM140.547 20.0391L143.359 9.82031H146.887L142.609 22.5H140.477L140.547 20.0391ZM138.613 9.82031L141.438 20.0508L141.496 22.5H139.352L135.074 9.82031H138.613ZM154.07 22.7344C153.086 22.7344 152.203 22.5781 151.422 22.2656C150.641 21.9453 149.977 21.5039 149.43 20.9414C148.891 20.3789 148.477 19.7266 148.188 18.9844C147.898 18.2344 147.754 17.4375 147.754 16.5938V16.125C147.754 15.1641 147.891 14.2852 148.164 13.4883C148.438 12.6914 148.828 12 149.336 11.4141C149.852 10.8281 150.477 10.3789 151.211 10.0664C151.945 9.74609 152.773 9.58594 153.695 9.58594C154.594 9.58594 155.391 9.73438 156.086 10.0312C156.781 10.3281 157.363 10.75 157.832 11.2969C158.309 11.8438 158.668 12.5 158.91 13.2656C159.152 14.0234 159.273 14.8672 159.273 15.7969V17.2031H149.195V14.9531H155.957V14.6953C155.957 14.2266 155.871 13.8086 155.699 13.4414C155.535 13.0664 155.285 12.7695 154.949 12.5508C154.613 12.332 154.184 12.2227 153.66 12.2227C153.215 12.2227 152.832 12.3203 152.512 12.5156C152.191 12.7109 151.93 12.9844 151.727 13.3359C151.531 13.6875 151.383 14.1016 151.281 14.5781C151.188 15.0469 151.141 15.5625 151.141 16.125V16.5938C151.141 17.1016 151.211 17.5703 151.352 18C151.5 18.4297 151.707 18.8008 151.973 19.1133C152.246 19.4258 152.574 19.668 152.957 19.8398C153.348 20.0117 153.789 20.0977 154.281 20.0977C154.891 20.0977 155.457 19.9805 155.98 19.7461C156.512 19.5039 156.969 19.1406 157.352 18.6562L158.992 20.4375C158.727 20.8203 158.363 21.1875 157.902 21.5391C157.449 21.8906 156.902 22.1797 156.262 22.4062C155.621 22.625 154.891 22.7344 154.07 22.7344ZM164.57 12.5859V22.5H161.195V9.82031H164.371L164.57 12.5859ZM168.391 9.73828L168.332 12.8672C168.168 12.8438 167.969 12.8242 167.734 12.8086C167.508 12.7852 167.301 12.7734 167.113 12.7734C166.637 12.7734 166.223 12.8359 165.871 12.9609C165.527 13.0781 165.238 13.2539 165.004 13.4883C164.777 13.7227 164.605 14.0078 164.488 14.3438C164.379 14.6797 164.316 15.0625 164.301 15.4922L163.621 15.2812C163.621 14.4609 163.703 13.707 163.867 13.0195C164.031 12.3242 164.27 11.7188 164.582 11.2031C164.902 10.6875 165.293 10.2891 165.754 10.0078C166.215 9.72656 166.742 9.58594 167.336 9.58594C167.523 9.58594 167.715 9.60156 167.91 9.63281C168.105 9.65625 168.266 9.69141 168.391 9.73828ZM173.957 21.0703L177.32 9.82031H180.941L175.844 24.4102C175.734 24.7305 175.586 25.0742 175.398 25.4414C175.219 25.8086 174.973 26.1562 174.66 26.4844C174.355 26.8203 173.969 27.0938 173.5 27.3047C173.039 27.5156 172.473 27.6211 171.801 27.6211C171.48 27.6211 171.219 27.6016 171.016 27.5625C170.812 27.5234 170.57 27.4688 170.289 27.3984V24.9258C170.375 24.9258 170.465 24.9258 170.559 24.9258C170.652 24.9336 170.742 24.9375 170.828 24.9375C171.273 24.9375 171.637 24.8867 171.918 24.7852C172.199 24.6836 172.426 24.5273 172.598 24.3164C172.77 24.1133 172.906 23.8477 173.008 23.5195L173.957 21.0703ZM172.551 9.82031L175.305 19.0078L175.785 22.582L173.488 22.8281L168.93 9.82031H172.551Z" fill="white"/>
<path d="M15.5391 0.5L28.5294 8V23L15.5391 30.5L2.54868 23V8L15.5391 0.5Z" fill="#065E7C"/>
</g>
<defs>
<clipPath id="clip0_4102_983">
<rect width="197" height="39" fill="white" transform="translate(0.539062 0.5)"/>
</clipPath>
</defs>
</svg>
